<!-- <svg width="230" height="60" viewBox="0 0 230 60" fill="none" xmlns="http://www.w3.org/2000/svg">
  <path
    d="M88.2687 42.1582H80V18.8325H88.3372C90.6832 18.8325 92.703 19.2995 94.3962 20.2334C96.0895 21.1598 97.3918 22.4923 98.303 24.2311C99.2218 25.9699 99.681 28.0504 99.681 30.4727C99.681 32.9024 99.2218 34.9904 98.303 36.7369C97.3918 38.4832 96.082 39.8234 94.3735 40.7574C92.6728 41.6912 90.6377 42.1582 88.2687 42.1582ZM84.9317 37.9327H88.0637C89.5217 37.9327 90.748 37.6747 91.7425 37.1582C92.7447 36.6344 93.4965 35.8257 93.9977 34.7322C94.5065 33.6312 94.7608 32.2114 94.7608 30.4727C94.7608 28.7489 94.5065 27.3404 93.9977 26.2472C93.4965 25.1537 92.7487 24.3488 91.754 23.8325C90.7592 23.3162 89.533 23.058 88.0752 23.058H84.9317V37.9327Z"
    fill="#212636" />
  <path
    d="M111.055 42.5001C109.256 42.5001 107.707 42.1356 106.408 41.4066C105.118 40.6701 104.123 39.6298 103.424 38.2861C102.726 36.9343 102.377 35.3361 102.377 33.4911C102.377 31.6913 102.726 30.1121 103.424 28.7528C104.123 27.3938 105.106 26.3346 106.374 25.5753C107.65 24.8159 109.146 24.4363 110.862 24.4363C112.016 24.4363 113.09 24.6223 114.085 24.9944C115.087 25.3588 115.96 25.9093 116.705 26.6458C117.456 27.3823 118.041 28.3088 118.459 29.4248C118.876 30.5336 119.085 31.8318 119.085 33.3201V34.6526H104.313V31.6458H114.518C114.518 30.9473 114.366 30.3286 114.062 29.7893C113.758 29.2503 113.337 28.8288 112.798 28.5251C112.266 28.2138 111.648 28.0581 110.941 28.0581C110.205 28.0581 109.552 28.2291 108.982 28.5706C108.421 28.9048 107.98 29.3566 107.661 29.9261C107.342 30.4878 107.179 31.1143 107.172 31.8053V34.6641C107.172 35.5296 107.331 36.2776 107.65 36.9078C107.976 37.5381 108.436 38.0241 109.028 38.3656C109.62 38.7073 110.323 38.8783 111.135 38.8783C111.674 38.8783 112.168 38.8023 112.616 38.6503C113.064 38.4986 113.447 38.2708 113.766 37.9671C114.085 37.6633 114.328 37.2913 114.495 36.8508L118.982 37.1471C118.755 38.2253 118.288 39.1668 117.582 39.9716C116.883 40.7688 115.979 41.3916 114.871 41.8396C113.77 42.2798 112.498 42.5001 111.055 42.5001Z"
    fill="#212636" />
  <path
    d="M137.931 24.6641L131.815 42.1583H126.348L120.232 24.6641H125.357L128.99 37.1811H129.172L132.794 24.6641H137.931Z"
    fill="#212636" />
  <path
    d="M140.253 42.1583V24.664H145.105V42.1583H140.253ZM142.691 22.4089C141.969 22.4089 141.351 22.1697 140.834 21.6914C140.326 21.2054 140.071 20.6245 140.071 19.9487C140.071 19.2805 140.326 18.7073 140.834 18.2289C141.351 17.743 141.969 17.5 142.691 17.5C143.412 17.5 144.027 17.743 144.536 18.2289C145.052 18.7073 145.31 19.2805 145.31 19.9487C145.31 20.6245 145.052 21.2054 144.536 21.6914C144.027 22.1697 143.412 22.4089 142.691 22.4089Z"
    fill="#212636" />
  <path
    d="M153.82 42.4886C152.704 42.4886 151.709 42.2951 150.836 41.9078C149.963 41.5131 149.272 40.9321 148.764 40.1653C148.262 39.3908 148.012 38.4263 148.012 37.2723C148.012 36.3003 148.19 35.4841 148.547 34.8236C148.904 34.1628 149.39 33.6313 150.005 33.2291C150.62 32.8266 151.318 32.5228 152.1 32.3178C152.89 32.1128 153.718 31.9686 154.583 31.8851C155.601 31.7788 156.421 31.6801 157.044 31.5888C157.666 31.4903 158.118 31.3458 158.399 31.1561C158.68 30.9663 158.82 30.6853 158.82 30.3133V30.2448C158.82 29.5236 158.592 28.9656 158.137 28.5706C157.689 28.1758 157.051 27.9783 156.223 27.9783C155.35 27.9783 154.655 28.1721 154.139 28.5593C153.623 28.9391 153.281 29.4173 153.114 29.9943L148.627 29.6298C148.854 28.5668 149.302 27.6481 149.971 26.8736C150.639 26.0916 151.501 25.4918 152.556 25.0741C153.619 24.6489 154.849 24.4363 156.246 24.4363C157.218 24.4363 158.148 24.5502 159.037 24.778C159.933 25.0058 160.726 25.3588 161.417 25.8373C162.116 26.3156 162.666 26.9306 163.069 27.6823C163.471 28.4263 163.672 29.3186 163.672 30.3588V42.1583H159.071V39.7323H158.934C158.653 40.2791 158.277 40.7613 157.807 41.1788C157.336 41.5888 156.77 41.9116 156.11 42.1471C155.449 42.3748 154.686 42.4886 153.82 42.4886ZM155.21 39.1401C155.924 39.1401 156.554 38.9996 157.1 38.7188C157.647 38.4303 158.076 38.0431 158.387 37.5571C158.699 37.0711 158.855 36.5206 158.855 35.9056V34.0491C158.703 34.1478 158.494 34.2388 158.228 34.3223C157.97 34.3983 157.678 34.4706 157.351 34.5388C157.025 34.5996 156.698 34.6566 156.372 34.7096C156.045 34.7553 155.749 34.7971 155.483 34.8348C154.914 34.9186 154.416 35.0513 153.991 35.2336C153.566 35.4158 153.236 35.6626 153 35.9738C152.765 36.2776 152.647 36.6573 152.647 37.1128C152.647 37.7733 152.887 38.2783 153.365 38.6276C153.851 38.9693 154.466 39.1401 155.21 39.1401Z"
    fill="#212636" />
  <path
    d="M181.832 29.6526L177.39 29.9261C177.314 29.5463 177.151 29.2048 176.9 28.9011C176.65 28.5896 176.32 28.3428 175.91 28.1606C175.507 27.9708 175.025 27.8758 174.463 27.8758C173.711 27.8758 173.077 28.0353 172.561 28.3543C172.045 28.6656 171.787 29.0833 171.787 29.6071C171.787 30.0248 171.954 30.3778 172.288 30.6663C172.622 30.9548 173.195 31.1866 174.008 31.3611L177.174 31.9988C178.875 32.3483 180.143 32.9101 180.978 33.6846C181.813 34.4591 182.231 35.4766 182.231 36.7371C182.231 37.8836 181.893 38.8896 181.217 39.7551C180.549 40.6208 179.63 41.2966 178.461 41.7826C177.299 42.2608 175.959 42.5001 174.44 42.5001C172.124 42.5001 170.279 42.0178 168.905 41.0536C167.538 40.0818 166.737 38.7606 166.502 37.0901L171.274 36.8396C171.418 37.5456 171.768 38.0848 172.322 38.4568C172.876 38.8213 173.586 39.0036 174.452 39.0036C175.302 39.0036 175.986 38.8403 176.502 38.5138C177.026 38.1796 177.291 37.7506 177.299 37.2268C177.291 36.7863 177.105 36.4256 176.741 36.1448C176.377 35.8561 175.815 35.6361 175.055 35.4841L172.026 34.8806C170.317 34.5388 169.045 33.9466 168.21 33.1038C167.383 32.2608 166.969 31.1866 166.969 29.8806C166.969 28.7568 167.273 27.7886 167.88 26.9761C168.495 26.1638 169.357 25.5373 170.465 25.0968C171.582 24.6565 172.888 24.4363 174.383 24.4363C176.593 24.4363 178.332 24.9033 179.6 25.8373C180.875 26.7711 181.62 28.0431 181.832 29.6526Z"
    fill="#212636" />
  <path
    d="M185.216 42.1582V18.8325H190.148V29.1172H190.456L198.85 18.8325H204.761L196.105 29.2767L204.863 42.1582H198.964L192.574 32.5682L190.148 35.5294V42.1582H185.216Z"
    fill="#212636" />
  <path
    d="M208.174 42.1583V24.664H213.026V42.1583H208.174ZM210.611 22.4089C209.89 22.4089 209.271 22.1697 208.755 21.6914C208.246 21.2054 207.992 20.6245 207.992 19.9487C207.992 19.2805 208.246 18.7073 208.755 18.2289C209.271 17.743 209.89 17.5 210.611 17.5C211.333 17.5 211.948 17.743 212.456 18.2289C212.973 18.7073 213.231 19.2805 213.231 19.9487C213.231 20.6245 212.973 21.2054 212.456 21.6914C211.948 22.1697 211.333 22.4089 210.611 22.4089Z"
    fill="#212636" />
  <path
    d="M226.057 24.664V28.3087H215.522V24.664H226.057ZM217.914 20.4727H222.766V36.7825C222.766 37.2305 222.834 37.5797 222.971 37.8302C223.108 38.0732 223.297 38.244 223.54 38.3427C223.791 38.4415 224.08 38.491 224.406 38.491C224.634 38.491 224.862 38.472 225.089 38.434C225.317 38.3885 225.492 38.3542 225.613 38.3315L226.376 41.942C226.133 42.0177 225.792 42.1052 225.352 42.2037C224.911 42.3102 224.376 42.3747 223.745 42.3975C222.576 42.443 221.551 42.2875 220.67 41.9305C219.797 41.5737 219.117 41.0192 218.632 40.2677C218.146 39.516 217.907 38.5667 217.914 37.4202V20.4727Z"
    fill="#212636" />
</svg> -->
  <svg xmlns="http://www.w3.org/2000/svg" width="48" height="48" viewBox="0 0 24 24" fill="none" stroke="#000000" stroke-width="2" stroke-linecap="round" stroke-linejoin="round" class="lucide lucide-train-front"><path d="M8 3.1V7a4 4 0 0 0 8 0V3.1"/><path d="m9 15-1-1"/><path d="m15 15 1-1"/><path d="M9 19c-2.8 0-5-2.2-5-5v-4a8 8 0 0 1 16 0v4c0 2.8-2.2 5-5 5Z"/><path d="m8 19-2 3"/><path d="m16 19 2 3"/></svg>
  